<mxfile host="app.diagrams.net" agent="Mozilla/5.0 (Windows NT 10.0; Win64; x64; rv:131.0) Gecko/20100101 Firefox/131.0" version="24.8.2">
  <diagram name="Página-1" id="2UFubnlOPNcLVtzOg3cz">
    <mxGraphModel dx="1050" dy="537" grid="1" gridSize="10" guides="1" tooltips="1" connect="1" arrows="1" fold="1" page="1" pageScale="1" pageWidth="827" pageHeight="1169" math="0" shadow="0">
      <root>
        <mxCell id="0" />
        <mxCell id="1" parent="0" />
        <mxCell id="LAw6QS3u9CyFXUZ_AV9O-43" style="rounded=0;orthogonalLoop=1;jettySize=auto;html=1;entryX=0;entryY=0.5;entryDx=0;entryDy=0;endArrow=none;endFill=0;" parent="1" source="LAw6QS3u9CyFXUZ_AV9O-4" target="LAw6QS3u9CyFXUZ_AV9O-29" edge="1">
          <mxGeometry relative="1" as="geometry" />
        </mxCell>
        <mxCell id="CVwnzzFSqbd-vNAXBtIS-6" style="rounded=0;orthogonalLoop=1;jettySize=auto;html=1;entryX=0;entryY=0.5;entryDx=0;entryDy=0;endArrow=none;endFill=0;" parent="1" source="LAw6QS3u9CyFXUZ_AV9O-4" target="LAw6QS3u9CyFXUZ_AV9O-30" edge="1">
          <mxGeometry relative="1" as="geometry" />
        </mxCell>
        <mxCell id="CVwnzzFSqbd-vNAXBtIS-16" style="rounded=0;orthogonalLoop=1;jettySize=auto;html=1;entryX=0;entryY=0.5;entryDx=0;entryDy=0;endArrow=none;endFill=0;" parent="1" source="LAw6QS3u9CyFXUZ_AV9O-4" target="CVwnzzFSqbd-vNAXBtIS-9" edge="1">
          <mxGeometry relative="1" as="geometry" />
        </mxCell>
        <mxCell id="CVwnzzFSqbd-vNAXBtIS-17" style="rounded=0;orthogonalLoop=1;jettySize=auto;html=1;entryX=0;entryY=0.5;entryDx=0;entryDy=0;endArrow=none;endFill=0;" parent="1" source="LAw6QS3u9CyFXUZ_AV9O-4" target="CVwnzzFSqbd-vNAXBtIS-8" edge="1">
          <mxGeometry relative="1" as="geometry" />
        </mxCell>
        <mxCell id="LAw6QS3u9CyFXUZ_AV9O-4" value="Customer" style="shape=umlActor;verticalLabelPosition=bottom;verticalAlign=top;html=1;outlineConnect=0;" parent="1" vertex="1">
          <mxGeometry x="100" y="230" width="30" height="60" as="geometry" />
        </mxCell>
        <mxCell id="LAw6QS3u9CyFXUZ_AV9O-27" value="Ex2: Sudoku app" style="swimlane;whiteSpace=wrap;html=1;swimlaneLine=1;strokeColor=default;fillColor=#FFFFFF;fillStyle=auto;" parent="1" vertex="1">
          <mxGeometry x="240" y="110" width="400" height="430" as="geometry">
            <mxRectangle x="220" y="110" width="130" height="30" as="alternateBounds" />
          </mxGeometry>
        </mxCell>
        <mxCell id="LAw6QS3u9CyFXUZ_AV9O-29" value="start game" style="ellipse;whiteSpace=wrap;html=1;" parent="LAw6QS3u9CyFXUZ_AV9O-27" vertex="1">
          <mxGeometry x="40" y="40" width="90" height="60" as="geometry" />
        </mxCell>
        <mxCell id="QqPXh2uECVtf3gs-9SA3-3" style="rounded=0;orthogonalLoop=1;jettySize=auto;html=1;entryX=0.5;entryY=1;entryDx=0;entryDy=0;dashed=1;exitX=1;exitY=0.5;exitDx=0;exitDy=0;" edge="1" parent="LAw6QS3u9CyFXUZ_AV9O-27" source="LAw6QS3u9CyFXUZ_AV9O-30" target="QqPXh2uECVtf3gs-9SA3-1">
          <mxGeometry relative="1" as="geometry" />
        </mxCell>
        <mxCell id="LAw6QS3u9CyFXUZ_AV9O-30" value="chose dificulty" style="ellipse;whiteSpace=wrap;html=1;" parent="LAw6QS3u9CyFXUZ_AV9O-27" vertex="1">
          <mxGeometry x="40" y="120" width="90" height="60" as="geometry" />
        </mxCell>
        <mxCell id="CVwnzzFSqbd-vNAXBtIS-9" value="choose cell and place number" style="ellipse;whiteSpace=wrap;html=1;" parent="LAw6QS3u9CyFXUZ_AV9O-27" vertex="1">
          <mxGeometry x="40" y="200" width="90" height="60" as="geometry" />
        </mxCell>
        <mxCell id="CVwnzzFSqbd-vNAXBtIS-13" style="rounded=0;orthogonalLoop=1;jettySize=auto;html=1;entryX=0;entryY=0.5;entryDx=0;entryDy=0;endArrow=none;endFill=0;startArrow=classic;startFill=1;dashed=1;" parent="LAw6QS3u9CyFXUZ_AV9O-27" source="CVwnzzFSqbd-vNAXBtIS-8" target="CVwnzzFSqbd-vNAXBtIS-10" edge="1">
          <mxGeometry relative="1" as="geometry" />
        </mxCell>
        <mxCell id="CVwnzzFSqbd-vNAXBtIS-14" style="rounded=0;orthogonalLoop=1;jettySize=auto;html=1;entryX=0;entryY=0.5;entryDx=0;entryDy=0;endArrow=none;endFill=0;dashed=1;startArrow=classic;startFill=1;" parent="LAw6QS3u9CyFXUZ_AV9O-27" source="CVwnzzFSqbd-vNAXBtIS-8" target="CVwnzzFSqbd-vNAXBtIS-11" edge="1">
          <mxGeometry relative="1" as="geometry" />
        </mxCell>
        <mxCell id="CVwnzzFSqbd-vNAXBtIS-15" style="rounded=0;orthogonalLoop=1;jettySize=auto;html=1;entryX=0;entryY=0.5;entryDx=0;entryDy=0;endArrow=none;endFill=0;startArrow=classic;startFill=1;dashed=1;" parent="LAw6QS3u9CyFXUZ_AV9O-27" source="CVwnzzFSqbd-vNAXBtIS-8" target="CVwnzzFSqbd-vNAXBtIS-12" edge="1">
          <mxGeometry relative="1" as="geometry" />
        </mxCell>
        <mxCell id="CVwnzzFSqbd-vNAXBtIS-8" value="Press &quot;Check&quot; button" style="ellipse;whiteSpace=wrap;html=1;" parent="LAw6QS3u9CyFXUZ_AV9O-27" vertex="1">
          <mxGeometry x="40" y="280" width="90" height="60" as="geometry" />
        </mxCell>
        <mxCell id="CVwnzzFSqbd-vNAXBtIS-19" style="rounded=0;orthogonalLoop=1;jettySize=auto;html=1;entryX=0.5;entryY=1;entryDx=0;entryDy=0;dashed=1;" parent="LAw6QS3u9CyFXUZ_AV9O-27" source="CVwnzzFSqbd-vNAXBtIS-10" target="CVwnzzFSqbd-vNAXBtIS-18" edge="1">
          <mxGeometry relative="1" as="geometry" />
        </mxCell>
        <mxCell id="CVwnzzFSqbd-vNAXBtIS-10" value="&#xa;&lt;em&gt;“Error in highlighted cells”&lt;/em&gt;&#xa;&#xa;" style="ellipse;whiteSpace=wrap;html=1;" parent="LAw6QS3u9CyFXUZ_AV9O-27" vertex="1">
          <mxGeometry x="180" y="210" width="90" height="60" as="geometry" />
        </mxCell>
        <mxCell id="CVwnzzFSqbd-vNAXBtIS-11" value="&lt;em&gt;“Everything is OK, you have X cells left”&lt;/em&gt;" style="ellipse;whiteSpace=wrap;html=1;" parent="LAw6QS3u9CyFXUZ_AV9O-27" vertex="1">
          <mxGeometry x="180" y="280" width="90" height="60" as="geometry" />
        </mxCell>
        <mxCell id="CVwnzzFSqbd-vNAXBtIS-25" style="rounded=0;orthogonalLoop=1;jettySize=auto;html=1;entryX=0.5;entryY=1;entryDx=0;entryDy=0;dashed=1;exitX=1;exitY=0.5;exitDx=0;exitDy=0;" parent="LAw6QS3u9CyFXUZ_AV9O-27" source="CVwnzzFSqbd-vNAXBtIS-12" target="CVwnzzFSqbd-vNAXBtIS-24" edge="1">
          <mxGeometry relative="1" as="geometry" />
        </mxCell>
        <mxCell id="CVwnzzFSqbd-vNAXBtIS-12" value="&lt;em&gt;“Well done!”&lt;/em&gt;" style="ellipse;whiteSpace=wrap;html=1;" parent="LAw6QS3u9CyFXUZ_AV9O-27" vertex="1">
          <mxGeometry x="180" y="350" width="90" height="60" as="geometry" />
        </mxCell>
        <mxCell id="CVwnzzFSqbd-vNAXBtIS-18" value="highlight wrong cells" style="ellipse;whiteSpace=wrap;html=1;" parent="LAw6QS3u9CyFXUZ_AV9O-27" vertex="1">
          <mxGeometry x="270" y="100" width="90" height="60" as="geometry" />
        </mxCell>
        <mxCell id="CVwnzzFSqbd-vNAXBtIS-21" value="&amp;lt;&amp;lt;include&amp;gt;&amp;gt;" style="text;html=1;align=center;verticalAlign=middle;whiteSpace=wrap;rounded=0;" parent="LAw6QS3u9CyFXUZ_AV9O-27" vertex="1">
          <mxGeometry x="290" y="180" width="60" height="30" as="geometry" />
        </mxCell>
        <mxCell id="CVwnzzFSqbd-vNAXBtIS-22" value="&amp;lt;&amp;lt;extend&amp;gt;&amp;gt;" style="text;html=1;align=center;verticalAlign=middle;whiteSpace=wrap;rounded=0;" parent="LAw6QS3u9CyFXUZ_AV9O-27" vertex="1">
          <mxGeometry x="130" y="270" width="60" height="30" as="geometry" />
        </mxCell>
        <mxCell id="CVwnzzFSqbd-vNAXBtIS-23" value="&amp;lt;&amp;lt;extend&amp;gt;&amp;gt;" style="text;html=1;align=center;verticalAlign=middle;whiteSpace=wrap;rounded=0;" parent="LAw6QS3u9CyFXUZ_AV9O-27" vertex="1">
          <mxGeometry x="130" y="320" width="60" height="30" as="geometry" />
        </mxCell>
        <mxCell id="CVwnzzFSqbd-vNAXBtIS-24" value="show stats and total time" style="ellipse;whiteSpace=wrap;html=1;" parent="LAw6QS3u9CyFXUZ_AV9O-27" vertex="1">
          <mxGeometry x="290" y="290" width="90" height="60" as="geometry" />
        </mxCell>
        <mxCell id="CVwnzzFSqbd-vNAXBtIS-26" value="&amp;lt;&amp;lt;include&amp;gt;&amp;gt;" style="text;html=1;align=center;verticalAlign=middle;whiteSpace=wrap;rounded=0;" parent="LAw6QS3u9CyFXUZ_AV9O-27" vertex="1">
          <mxGeometry x="290" y="380" width="60" height="30" as="geometry" />
        </mxCell>
        <mxCell id="QqPXh2uECVtf3gs-9SA3-1" value="start timer" style="ellipse;whiteSpace=wrap;html=1;" vertex="1" parent="LAw6QS3u9CyFXUZ_AV9O-27">
          <mxGeometry x="155" y="40" width="90" height="60" as="geometry" />
        </mxCell>
        <mxCell id="QqPXh2uECVtf3gs-9SA3-4" value="&amp;lt;&amp;lt;include&amp;gt;&amp;gt;" style="text;html=1;align=center;verticalAlign=middle;whiteSpace=wrap;rounded=0;" vertex="1" parent="LAw6QS3u9CyFXUZ_AV9O-27">
          <mxGeometry x="155" y="120" width="60" height="30" as="geometry" />
        </mxCell>
      </root>
    </mxGraphModel>
  </diagram>
</mxfile>
